# xmcd
#
# Track frame offsets:
#	150
#	22282
#	32935
#	45235
#	57832
#	67807
#	80335
#	95860
#	108085
#	121660
#	131710
#	145660
#	159682
#	173035
#	185107
#
# Disc length: 2647 seconds
#
# Revision: 1
# Processed by: cddbd v1.5.1PL0 Copyright (c) Steve Scherf et al.
# Submitted via: audiograbber 1.83.01
#
DISCID=ca0a550f
DTITLE=Elvis Presley - Legends 027
DYEAR=1900
DGENRE=
TTITLE0=Elvis Presley - I Just Can't Help Believing
TTITLE1=Elvis Presley - Wooden Heart
TTITLE2=Elvis Presley - Too Much
TTITLE3=Elvis Presley - The Wonder Of You
TTITLE4=Elvis Presley - That's All Right
TTITLE5=Elvis Presley - Memphis Tennessee
TTITLE6=Elvis Presley - Are You Lonesome Tonight
TTITLE7=Elvis Presley - Ain't That Loving You Baby
TTITLE8=Elvis Presley - G I Blues
TTITLE9=Elvis Presley - Surrender
TTITLE10=Elvis Presley - Don't
TTITLE11=Elvis Presley - I Want You, I Need You, I Love You
TTITLE12=Elvis Presley - Love Me Tender
TTITLE13=Elvis Presley - Hound Dog
TTITLE14=Elvis Presley - Blueberry Hill
EXTD=
EXTT0=
EXTT1=
EXTT2=
EXTT3=
EXTT4=
EXTT5=
EXTT6=
EXTT7=
EXTT8=
EXTT9=
EXTT10=
EXTT11=
EXTT12=
EXTT13=
EXTT14=
PLAYORDER=
